<?xml version="1.0" encoding="UTF-8"?>
<svg version="1.1" xmlns="http://www.w3.org/2000/svg" width="500" height="500">
<path d="M0 0 C165 0 330 0 500 0 C500 165 500 330 500 500 C335 500 170 500 0 500 C0 335 0 170 0 0 Z " fill="#03989E" transform="translate(0,0)"/>
<path d="M0 0 C23.1 0 46.2 0 70 0 C73.58061617 5.96769362 77.04231699 11.78489739 80.171875 17.96484375 C80.53584381 18.67614944 80.89981262 19.38745514 81.27481079 20.12031555 C82.04250977 21.62139865 82.80869748 23.12325555 83.57342529 24.62585449 C85.57058673 28.54972709 87.5791671 32.46775442 89.5859375 36.38671875 C89.97580841 37.14888702 90.36567932 37.9110553 90.7673645 38.69631958 C93.60113925 44.23306782 96.46602436 49.75233112 99.375 55.25 C99.75108398 55.9608374 100.12716797 56.6716748 100.51464844 57.40405273 C101.27115483 58.83382375 102.02766525 60.26359262 102.78417969 61.69335938 C105.2055465 66.28714926 107.60071915 70.89464872 110 75.5 C114.04827803 83.26807455 118.11315196 91.02702949 122.19995117 98.77490234 C124.51606497 103.16943696 126.82014903 107.56998641 129.11328125 111.9765625 C129.64501953 112.99814453 130.17675781 114.01972656 130.72460938 115.07226562 C131.75175076 117.04695441 132.77786225 119.02217938 133.80273438 120.99804688 C134.27646484 121.90876953 134.75019531 122.81949219 135.23828125 123.7578125 C135.65118408 124.5533252 136.06408691 125.34883789 136.48950195 126.16845703 C137.83277818 128.68653005 139.20672674 131.18320983 140.59440613 133.67697144 C141.04483874 134.48673368 141.49527136 135.29649593 141.95935345 136.13079643 C142.30276681 136.74763361 142.64618017 137.36447079 143 138 C142.97021844 137.35398142 142.94043688 136.70796284 142.90975285 136.04236794 C142.14308831 119.00567843 141.86354124 102.01319639 141.90234375 84.9609375 C141.90421596 82.48703032 141.90563605 80.01312277 141.90663147 77.53921509 C141.91039355 71.12472453 141.92016741 64.71025773 141.93133545 58.29577637 C141.94351776 50.54758715 141.94798194 42.79938934 141.95378876 35.05119324 C141.96338459 23.36744579 141.98258467 11.68375016 142 0 C157.84 0 173.68 0 190 0 C190 66 190 132 190 200 C166.57 200 143.14 200 119 200 C107.53860294 178.22334559 107.53860294 178.22334559 102.25 168 C101.04689136 165.67707486 99.84376587 163.35415845 98.640625 161.03125 C98.03798828 159.86722656 97.43535156 158.70320312 96.81445312 157.50390625 C93.87871888 151.83468424 90.93921157 146.16741973 88 140.5 C86.83331432 138.25000986 85.66664767 136.00000985 84.5 133.75 C83.9225 132.63625 83.345 131.5225 82.75 130.375 C77.5 120.25 77.5 120.25 75.74829102 116.87158203 C74.58745412 114.63290621 73.42648514 112.39429887 72.26538086 110.15576172 C69.57320389 104.96502973 66.88218985 99.77370775 64.19619751 94.57977295 C63.25808806 92.76589821 62.31953787 90.95225219 61.38085938 89.13867188 C60.21332544 86.88261007 59.04658952 84.626135 57.88085938 82.36914062 C55.06272826 76.92571569 52.20696366 71.5056136 49.29663086 66.11083984 C48.67630478 64.96046234 48.0559787 63.81008484 47.41685486 62.62484741 C46.94929276 61.75864777 46.48173065 60.89244812 46 60 C46.05993134 60.80644958 46.11986267 61.61289917 46.18161011 62.44378662 C48.18567941 90.52507508 48.24525899 118.54086941 48.1373291 146.68237305 C48.11277205 153.78835842 48.10400372 160.89438064 48.09242249 168.00039673 C48.07335384 178.66700456 48.03490894 189.33337961 48 200 C32.16 200 16.32 200 0 200 C0 134 0 68 0 0 Z " fill="#FDFEFE" transform="translate(236,154)"/>
<path d="M0 0 C1.11246094 0.0309375 2.22492188 0.061875 3.37109375 0.09375 C22.42663944 0.9749313 41.54187568 6.48797054 59 14 C58.36591592 19.10222317 56.83414425 23.46988609 54.9453125 28.20703125 C54.64309784 28.97303146 54.34088318 29.73903168 54.0295105 30.52824402 C53.39211833 32.13718346 52.75152643 33.74485859 52.10791016 35.35131836 C51.12308388 37.81729793 50.15691541 40.29007565 49.19140625 42.76367188 C48.56883175 44.3285724 47.94517174 45.89304161 47.3203125 47.45703125 C47.0327005 48.19862991 46.7450885 48.94022858 46.44876099 49.70429993 C45.71662987 51.50604987 44.86727571 53.25926691 44 55 C39.70667331 56.4311089 36.93188682 54.49873803 33 52.75 C20.58631901 47.43210197 9.03633605 44.83109621 -4.5 44.6875 C-5.41136719 44.65849609 -6.32273437 44.62949219 -7.26171875 44.59960938 C-13.40173935 44.54201899 -17.00814071 45.35462907 -22 49 C-24.48566051 52.72849076 -24.50971127 55.6844446 -24 60 C-20.98308538 68.44736093 -9.01394254 72.70476399 -1.5 76.375 C-0.06358154 77.08716675 -0.06358154 77.08716675 1.40185547 77.8137207 C6.56592442 80.36223901 11.76070129 82.82594338 17 85.21533203 C33.30730905 92.67577604 48.84678955 102.36350309 56.0625 119.52734375 C61.12003559 134.14070378 61.80181765 153.89475573 55 168 C52.92931861 171.89497791 50.62657089 175.45819101 48 179 C47.42636719 179.78117188 46.85273438 180.56234375 46.26171875 181.3671875 C35.1684917 195.09713447 16.42809402 203.16602429 -0.75390625 205.53125 C-18.49034101 207.41287298 -37.66476819 207.37120419 -55 203 C-55.74443359 202.81244141 -56.48886719 202.62488281 -57.25585938 202.43164062 C-65.37782431 200.32088607 -72.40071014 197.79964493 -80 194 C-80 178.16 -80 162.32 -80 146 C-76.38420725 147.20526425 -72.90218699 148.3940511 -69.3828125 149.8046875 C-55.70236831 155.20941995 -41.86813885 160.48933737 -27 161 C-26.26700684 161.03641602 -25.53401367 161.07283203 -24.77880859 161.11035156 C-11.54739179 162.03901048 -11.54739179 162.03901048 0.5390625 157.484375 C3.5846731 154.38990433 4.32445981 151.39392972 4.4375 147.125 C4.47746094 146.30257812 4.51742187 145.48015625 4.55859375 144.6328125 C3.62304282 140.22329272 0.92390216 137.34234822 -2.68237305 134.82617188 C-4.60964027 133.69993074 -6.56416491 132.68212746 -8.5625 131.6875 C-9.29847412 131.30851563 -10.03444824 130.92953125 -10.79272461 130.5390625 C-16.46259558 127.66169053 -22.24697891 125.06644518 -28.0625 122.5 C-48.49583452 113.43877166 -67.48197917 102.97685289 -75.96484375 81.046875 C-81.32902812 65.25795496 -80.82580349 47.41624369 -73.75 32.3359375 C-66.02589555 18.16045036 -52.26400291 8.8135503 -37.16015625 3.80859375 C-24.88471849 0.66765974 -12.64857262 -0.56029115 0 0 Z " fill="#FDFEFE" transform="translate(145,151)"/>
<path d="M0 0 C126.06 0 252.12 0 382 0 C382 9.24 382 18.48 382 28 C255.94 28 129.88 28 0 28 C0 18.76 0 9.52 0 0 Z " fill="#FCFEFE" transform="translate(57,102)"/>
<path d="M0 0 C54.12 0 108.24 0 164 0 C164 6.93 164 13.86 164 21 C109.88 21 55.76 21 0 21 C0 14.07 0 7.14 0 0 Z " fill="#FCFDFD" transform="translate(57,386)"/>
<path d="M0 0 C18.15 0 36.3 0 55 0 C55 8.25 55 16.5 55 25 C36.85 25 18.7 25 0 25 C0 16.75 0 8.5 0 0 Z " fill="#FDFEFE" transform="translate(384,384)"/>
<path d="M0 0 C3.63 0 7.26 0 11 0 C11 9.9 11 19.8 11 30 C8.36 30 5.72 30 3 30 C2.67 25.05 2.34 20.1 2 15 C0.68 19.95 -0.64 24.9 -2 30 C-4.64 30 -7.28 30 -10 30 C-10.65043719 28.27255984 -11.29514844 26.5429631 -11.9375 24.8125 C-12.29714844 23.84957031 -12.65679687 22.88664062 -13.02734375 21.89453125 C-14 19 -14 19 -15 14 C-15.33 19.28 -15.66 24.56 -16 30 C-18.31 30 -20.62 30 -23 30 C-23 20.43 -23 10.86 -23 1 C-19.37 1 -15.74 1 -12 1 C-11.16112944 3.43572059 -10.32873471 5.87333217 -9.5 8.3125 C-9.26152344 9.00279297 -9.02304687 9.69308594 -8.77734375 10.40429688 C-7.76791737 13.38931489 -7 15.82658914 -7 19 C-6.34 19 -5.68 19 -5 19 C-4.80664062 18.04738281 -4.61328125 17.09476562 -4.4140625 16.11328125 C-4.15367187 14.85902344 -3.89328125 13.60476563 -3.625 12.3125 C-3.24214844 10.45044922 -3.24214844 10.45044922 -2.8515625 8.55078125 C-2 5 -2 5 0 0 Z " fill="#F0F9F9" transform="translate(359,380)"/>
<path d="M0 0 C2.64 0 5.28 0 8 0 C8.33 6.93 8.66 13.86 9 21 C13.47702364 22.06537205 13.47702364 22.06537205 16 22 C16.33 14.74 16.66 7.48 17 0 C19.64 0 22.28 0 25 0 C25.08745946 3.3956697 25.14054444 6.79104773 25.1875 10.1875 C25.21263672 11.14720703 25.23777344 12.10691406 25.26367188 13.09570312 C25.35729357 22.11459284 25.35729357 22.11459284 22 26 C18.84271855 29.10296263 16.42841803 29.43199443 12.0625 29.4375 C8.10335779 29.34093556 6.3055829 29.17376282 2.8125 27.1875 C0.01952868 23.81667254 -0.12207166 21.11839682 -0.09765625 16.89453125 C-0.09443359 15.91162109 -0.09121094 14.92871094 -0.08789062 13.91601562 C-0.07951172 12.89185547 -0.07113281 11.86769531 -0.0625 10.8125 C-0.05798828 9.77673828 -0.05347656 8.74097656 -0.04882812 7.67382812 C-0.0370401 5.11582734 -0.02058515 2.55794267 0 0 Z " fill="#F8FCFC" transform="translate(235,381)"/>
<path d="M0 0 C0.77085937 -0.01417969 1.54171875 -0.02835937 2.3359375 -0.04296875 C4.84334888 0.20948393 6.45761902 0.93556533 8.625 2.1875 C8.295 4.1675 7.965 6.1475 7.625 8.1875 C3.995 7.8575 0.365 7.5275 -3.375 7.1875 C-3.375 8.1775 -3.375 9.1675 -3.375 10.1875 C-2.0446875 10.5896875 -2.0446875 10.5896875 -0.6875 11 C6.88936782 13.71623563 6.88936782 13.71623563 8.625 17.1875 C9.08590535 24.33153292 9.08590535 24.33153292 7.3125 27.625 C4.09017788 30.60863159 0.73878582 30.32264893 -3.4375 30.3125 C-4.50097656 30.31507813 -5.56445312 30.31765625 -6.66015625 30.3203125 C-9.375 30.1875 -9.375 30.1875 -11.375 29.1875 C-11.375 26.8775 -11.375 24.5675 -11.375 22.1875 C-5.435 23.1775 -5.435 23.1775 0.625 24.1875 C0.625 22.8675 0.625 21.5475 0.625 20.1875 C-0.261875 19.94 -1.14875 19.6925 -2.0625 19.4375 C-6.0548152 17.93096596 -9.41562332 16.10625337 -11.375 12.1875 C-11.75 9.375 -11.75 9.375 -11.375 6.1875 C-7.78412027 1.93514242 -5.50841468 0.04575095 0 0 Z " fill="#F3FAFA" transform="translate(322.375,379.8125)"/>
<path d="M0 0 C5.94 0 11.88 0 18 0 C18 2.31 18 4.62 18 7 C14.7 7 11.4 7 8 7 C8 8.98 8 10.96 8 13 C10.97 13 13.94 13 17 13 C17 14.98 17 16.96 17 19 C14.03 19 11.06 19 8 19 C8 22.63 8 26.26 8 30 C5.36 30 2.72 30 0 30 C0 20.1 0 10.2 0 0 Z " fill="#EEF8F8" transform="translate(290,380)"/>
<path d="M0 0 C7.26 0 14.52 0 22 0 C22 1.98 22 3.96 22 6 C19.69 6 17.38 6 15 6 C15 13.59 15 21.18 15 29 C12.36 29 9.72 29 7 29 C7 21.41 7 13.82 7 6 C4.69 6 2.38 6 0 6 C0 4.02 0 2.04 0 0 Z " fill="#FCFDFD" transform="translate(264,381)"/>
</svg>
