<svg version="1.2" xmlns="http://www.w3.org/2000/svg" viewBox="0 0 1823 377" width="1823" height="377"><title>SansaNews banner</title>
	<style>
		.s0 { fill: #000000 } 
	</style>
	<path id="Universdad Técnica Federico Sant" class="s0" aria-label="Universdad Técnica Federico Santa María"  d="m736.9 361.5v-20.1h7.9v20.1q0 4.2 1.2 6 1.2 1.8 4 1.8 2.9 0 4.1-1.8 1.3-1.8 1.3-6v-20.1h7.9v20.1q0 7.2-3.3 10.7-3.3 3.5-10 3.5-6.6 0-9.9-3.5-3.2-3.5-3.2-10.7zm56.7-1.9v15.4h-7.4v-2.5-9.3q0-3.2-0.1-4.5-0.1-1.2-0.5-1.8-0.4-0.8-1.1-1.2-0.8-0.4-1.7-0.4-2.3 0-3.6 1.9-1.3 1.9-1.3 5.4v12.4h-7.4v-25.2h7.4v3.7q1.6-2.2 3.5-3.3 1.9-1 4.1-1 4 0 6.1 2.7 2 2.6 2 7.7zm6.9 15.4v-25.2h7.4v25.2zm0-28.5v-6.5h7.3v6.5zm20.1 28.5l-9-25.2h7.4l5.7 17.4 5.7-17.4h7.4l-9.1 25.2zm43.8-12.7v2.3h-17.2q0.3 2.9 1.9 4.3 1.6 1.4 4.5 1.4 2.3 0 4.7-0.7 2.5-0.8 5-2.3v6.2q-2.6 1-5.2 1.6-2.6 0.6-5.2 0.6-6.2 0-9.7-3.5-3.4-3.5-3.4-9.8 0-6.2 3.3-9.7 3.4-3.5 9.4-3.5 5.4 0 8.6 3.6 3.3 3.5 3.3 9.5zm-17.1-2.7h9.6q0-2.3-1.3-3.6-1.2-1.5-3.2-1.5-2.1 0-3.4 1.4-1.4 1.3-1.7 3.7zm40.2-10.2v7.2q-0.9-0.4-1.9-0.7-0.9-0.2-1.9-0.2-2.8 0-4.4 2-1.5 2-1.5 5.7v11.6h-7.3v-25.2h7.3v4.1q1.4-2.5 3.3-3.6 1.8-1.1 4.4-1.1 0.3 0 0.8 0 0.4 0 1.2 0.2zm21.9 1.2v6.1q-2.3-1.1-4.5-1.6-2.2-0.6-4.2-0.6-2.1 0-3.1 0.6-1 0.6-1 1.8 0 0.9 0.8 1.5 0.7 0.5 2.7 0.7l1.3 0.2q5.7 0.8 7.6 2.6 2 1.8 2 5.7 0 4-2.7 6-2.8 2.1-8.1 2.1-2.3 0-4.7-0.4-2.5-0.4-5-1.2v-6.1q2.2 1.1 4.5 1.7 2.3 0.6 4.7 0.6 2.1 0 3.2-0.7 1.1-0.6 1.1-1.9 0-1.1-0.8-1.6-0.7-0.5-2.9-0.8l-1.3-0.2q-4.9-0.7-6.9-2.5-2-1.8-2-5.5 0-4.1 2.5-6 2.5-1.9 7.7-1.9 2 0 4.3 0.3 2.2 0.3 4.8 1.1zm22.7 2.9v-13.5h7.4v35h-7.4v-3.6q-1.5 2.2-3.3 3.2-1.9 1.1-4.3 1.1-4.2 0-6.9-3.7-2.8-3.8-2.8-9.6 0-5.8 2.8-9.5 2.7-3.7 6.9-3.7 2.4 0 4.2 1 1.9 1.1 3.4 3.3zm-4.8 16.3q2.3 0 3.6-1.9 1.2-1.9 1.2-5.5 0-3.6-1.2-5.5-1.3-1.9-3.6-1.9-2.4 0-3.6 1.9-1.3 1.9-1.3 5.5 0 3.6 1.3 5.5 1.2 1.9 3.6 1.9zm33.3-6.1h-3.8q-2.3 0-3.5 0.8-1.1 0.9-1.1 2.5 0 1.6 0.9 2.4 0.9 0.9 2.6 0.9 2.1 0 3.5-1.6 1.4-1.7 1.4-4.1zm7.4-3.1v14.4h-7.4v-3.7q-1.5 2.3-3.3 3.3-1.9 1.1-4.5 1.1-3.6 0-5.8-2.3-2.2-2.3-2.2-5.9 0-4.5 2.7-6.6 2.8-2 8.8-2h4.3v-0.7q0-1.9-1.4-2.7-1.4-0.9-4.3-0.9-2.3 0-4.4 0.5-2 0.5-3.7 1.5v-6.1q2.3-0.7 4.7-1 2.4-0.3 4.8-0.3 6.2 0 8.9 2.7 2.8 2.7 2.8 8.7zm22.1-7.1v-13.5h7.4v35h-7.4v-3.6q-1.5 2.2-3.3 3.2-1.9 1.1-4.3 1.1-4.2 0-6.9-3.7-2.8-3.7-2.8-9.6 0-5.8 2.8-9.5 2.7-3.7 6.9-3.7 2.4 0 4.2 1.1 1.9 1 3.4 3.2zm-4.8 16.3q2.3 0 3.6-1.9 1.2-1.9 1.2-5.5 0-3.6-1.2-5.5-1.3-1.8-3.6-1.8-2.4 0-3.6 1.8-1.3 1.9-1.3 5.5 0 3.6 1.3 5.5 1.2 1.9 3.6 1.9zm30.9-21.8v-6.6h28.2v6.6h-10.2v27h-7.9v-27zm49.3 14.3v2.3h-17.2q0.3 2.9 1.9 4.3 1.6 1.4 4.4 1.4 2.4 0 4.8-0.7 2.4-0.8 5-2.3v6.2q-2.6 1.1-5.2 1.6-2.6 0.6-5.2 0.6-6.3 0-9.7-3.5-3.5-3.5-3.5-9.8 0-6.1 3.4-9.7 3.4-3.5 9.4-3.5 5.4 0 8.6 3.6 3.3 3.6 3.3 9.5zm-17.1-2.6h9.5q0-2.3-1.2-3.7-1.2-1.4-3.2-1.4-2.1 0-3.4 1.3-1.4 1.3-1.7 3.8zm2.6-13.1l5.7-8.5h5.8l-7.5 8.5zm38.1 4v6.6q-1.5-1.2-3-1.7-1.5-0.5-3.1-0.5-3.1 0-4.8 1.9-1.7 2-1.7 5.5 0 3.6 1.7 5.6 1.7 1.9 4.8 1.9 1.7 0 3.3-0.6 1.5-0.5 2.8-1.6v6.6q-1.7 0.7-3.5 1-1.7 0.4-3.5 0.4-6.2 0-9.7-3.5-3.6-3.5-3.6-9.8 0-6.2 3.6-9.7 3.5-3.5 9.7-3.5 1.8 0 3.5 0.4 1.8 0.3 3.5 1zm29.6 9.1v15.3h-7.4v-2.5-9.2q0-3.3-0.2-4.5-0.1-1.3-0.4-1.9-0.4-0.7-1.2-1.2-0.7-0.4-1.7-0.4-2.3 0-3.6 1.9-1.3 2-1.3 5.4v12.4h-7.3v-25.2h7.3v3.7q1.7-2.2 3.5-3.2 1.9-1.1 4.2-1.1 3.9 0 6 2.7 2.1 2.7 2.1 7.8zm6.9 15.3v-25.2h7.3v25.2zm0-28.4v-6.6h7.4v6.6zm33.5 4v6.6q-1.5-1.2-3-1.7-1.5-0.5-3.1-0.5-3.1 0-4.8 1.9-1.7 2-1.7 5.5 0 3.6 1.7 5.6 1.7 1.9 4.8 1.9 1.7 0 3.2-0.6 1.6-0.5 2.9-1.6v6.6q-1.7 0.7-3.5 1-1.8 0.4-3.5 0.4-6.3 0-9.8-3.5-3.5-3.5-3.5-9.8 0-6.2 3.5-9.7 3.5-3.5 9.8-3.5 1.8 0 3.5 0.4 1.8 0.3 3.5 1zm19.6 13.1h-3.9q-2.2 0-3.4 0.8-1.2 0.9-1.2 2.6 0 1.5 1 2.4 0.9 0.8 2.6 0.8 2 0 3.4-1.6 1.5-1.6 1.5-4.1zm7.4-3v14.3h-7.4v-3.7q-1.5 2.3-3.4 3.4-1.8 1-4.5 1-3.5 0-5.8-2.3-2.2-2.3-2.2-5.9 0-4.5 2.8-6.5 2.8-2.1 8.7-2.1h4.4v-0.6q0-1.9-1.4-2.8-1.4-0.9-4.3-0.9-2.4 0-4.4 0.5-2 0.5-3.8 1.5v-6.1q2.4-0.6 4.8-0.9 2.4-0.4 4.7-0.4 6.2 0 9 2.7 2.8 2.7 2.8 8.8zm21.8 14.3v-33.6h21.3v6.6h-13.4v6.2h12.6v6.6h-12.6v14.2zm49.6-12.6v2.3h-17.2q0.3 2.8 1.9 4.2 1.6 1.4 4.4 1.4 2.4 0 4.8-0.7 2.4-0.8 5-2.3v6.2q-2.6 1.1-5.2 1.7-2.6 0.5-5.2 0.5-6.3 0-9.7-3.5-3.5-3.5-3.5-9.7 0-6.2 3.4-9.7 3.4-3.6 9.4-3.6 5.4 0 8.6 3.6 3.3 3.6 3.3 9.6zm-17.1-2.7h9.5q0-2.3-1.2-3.7-1.2-1.4-3.2-1.4-2.1 0-3.4 1.3-1.4 1.3-1.7 3.8zm38.8-6.2v-13.5h7.4v35h-7.4v-3.6q-1.5 2.2-3.4 3.3-1.8 1-4.2 1-4.2 0-7-3.7-2.7-3.7-2.7-9.5 0-5.9 2.7-9.6 2.8-3.7 7-3.7 2.4 0 4.2 1.1 1.9 1 3.4 3.2zm-4.9 16.3q2.4 0 3.6-1.8 1.3-1.9 1.3-5.5 0-3.6-1.3-5.5-1.2-1.9-3.6-1.9-2.3 0-3.6 1.9-1.2 1.9-1.2 5.5 0 3.6 1.2 5.5 1.3 1.8 3.6 1.8zm42.2-7.4v2.3h-17.2q0.3 2.8 1.9 4.2 1.6 1.4 4.4 1.4 2.4 0 4.8-0.7 2.4-0.8 5-2.3v6.2q-2.6 1.1-5.2 1.7-2.6 0.5-5.2 0.5-6.3 0-9.7-3.5-3.5-3.5-3.5-9.7 0-6.2 3.4-9.7 3.4-3.6 9.4-3.6 5.4 0 8.6 3.6 3.3 3.6 3.3 9.6zm-17.1-2.7h9.5q0-2.3-1.2-3.7-1.2-1.4-3.2-1.4-2.1 0-3.4 1.3-1.4 1.3-1.7 3.8zm39.2-10.3v7.3q-1-0.5-1.9-0.7-1-0.3-1.9-0.3-2.9 0-4.4 2-1.5 2-1.5 5.7v11.6h-7.4v-25.2h7.4v4.2q1.4-2.5 3.2-3.6 1.9-1.2 4.4-1.2 0.4 0 0.8 0.1 0.5 0 1.3 0.1zm3.9 25.6v-25.2h7.4v25.2zm0-28.4v-6.6h7.3v6.6zm33.6 4v6.6q-1.5-1.1-3-1.7-1.5-0.5-3.1-0.5-3.1 0-4.8 2-1.7 1.9-1.7 5.5 0 3.5 1.7 5.5 1.7 1.9 4.8 1.9 1.7 0 3.2-0.5 1.6-0.6 2.9-1.7v6.6q-1.7 0.7-3.5 1.1-1.8 0.3-3.6 0.3-6.2 0-9.7-3.5-3.5-3.5-3.5-9.7 0-6.3 3.5-9.8 3.5-3.5 9.7-3.5 1.8 0 3.6 0.4 1.8 0.3 3.5 1zm16.4 4.4q-2.5 0-3.8 1.9-1.2 1.9-1.2 5.6 0 3.6 1.2 5.5 1.3 1.9 3.8 1.9 2.4 0 3.6-1.9 1.3-1.9 1.3-5.5 0-3.7-1.3-5.6-1.2-1.9-3.6-1.9zm0-5.8q5.9 0 9.2 3.5 3.4 3.5 3.4 9.8 0 6.2-3.4 9.7-3.3 3.5-9.2 3.5-6 0-9.3-3.5-3.4-3.5-3.4-9.7 0-6.3 3.4-9.8 3.3-3.5 9.3-3.5zm54.7-6.7v7.1q-2.6-1.2-5-1.9-2.4-0.6-4.5-0.6-2.8 0-4.2 0.9-1.3 0.8-1.3 2.6 0 1.4 0.9 2.1 0.9 0.8 3.3 1.3l3.4 0.8q5.1 1.1 7.2 3.4 2.2 2.3 2.2 6.5 0 5.6-3 8.3-3 2.7-9.2 2.7-2.9 0-5.8-0.6-3-0.6-5.9-1.8v-7.3q2.9 1.7 5.6 2.6 2.8 0.8 5.3 0.8 2.6 0 4-0.9 1.4-1 1.4-2.7 0-1.6-1-2.5-0.9-0.8-3.7-1.5l-3-0.7q-4.6-1.1-6.8-3.5-2.1-2.3-2.1-6.4 0-5 3-7.7 2.9-2.7 8.5-2.7 2.5 0 5.2 0.4 2.6 0.5 5.5 1.3zm22.4 21.2h-3.8q-2.3 0-3.4 0.9-1.2 0.8-1.2 2.5 0 1.5 0.9 2.4 1 0.8 2.6 0.8 2.1 0 3.5-1.6 1.4-1.6 1.4-4.1zm7.4-3v14.4h-7.4v-3.8q-1.4 2.3-3.3 3.4-1.8 1-4.5 1-3.5 0-5.8-2.3-2.2-2.2-2.2-5.9 0-4.4 2.8-6.5 2.8-2.1 8.7-2.1h4.3v-0.6q0-1.9-1.3-2.8-1.4-0.9-4.3-0.9-2.4 0-4.4 0.5-2 0.5-3.8 1.6v-6.2q2.4-0.6 4.8-0.9 2.3-0.4 4.7-0.4 6.2 0 9 2.7 2.7 2.7 2.7 8.8zm29.6-1v15.4h-7.4v-2.5-9.3q0-3.2-0.1-4.5-0.1-1.2-0.5-1.8-0.4-0.8-1.1-1.2-0.8-0.5-1.7-0.5-2.3 0-3.6 2-1.3 1.9-1.3 5.4v12.4h-7.4v-25.2h7.4v3.6q1.6-2.2 3.5-3.2 1.9-1.1 4.1-1.1 4 0 6.1 2.7 2 2.7 2 7.8zm7.6-17h7.4v7.2h7.5v5.7h-7.5v10.7q0 1.8 0.6 2.4 0.6 0.6 2.5 0.6h3.8v5.8h-6.3q-4.4 0-6.2-2-1.8-2-1.8-6.8v-10.7h-3.6v-5.7h3.6zm33.4 21h-3.8q-2.3 0-3.4 0.8-1.2 0.9-1.2 2.6 0 1.5 0.9 2.4 1 0.8 2.6 0.8 2.1 0 3.5-1.6 1.4-1.6 1.4-4.1zm7.4-3v14.4h-7.4v-3.8q-1.4 2.3-3.3 3.4-1.8 1-4.5 1-3.5 0-5.8-2.3-2.2-2.3-2.2-5.9 0-4.4 2.8-6.5 2.8-2.1 8.7-2.1h4.3v-0.6q0-1.9-1.3-2.8-1.4-0.9-4.3-0.9-2.4 0-4.4 0.5-2 0.5-3.8 1.6v-6.2q2.4-0.6 4.8-0.9 2.3-0.4 4.7-0.4 6.2 0 9 2.7 2.7 2.7 2.7 8.8zm21.9 14.4v-33.7h10l7 18 7-18h10v33.7h-7.4v-24.6l-7.1 18.1h-5l-7.1-18.1v24.6zm55.8-11.4h-3.8q-2.3 0-3.5 0.9-1.1 0.8-1.1 2.5 0 1.5 0.9 2.4 1 0.8 2.6 0.8 2.1 0 3.5-1.6 1.4-1.6 1.4-4.1zm7.4-3v14.4h-7.4v-3.8q-1.4 2.3-3.3 3.4-1.8 1-4.5 1-3.6 0-5.8-2.2-2.2-2.3-2.2-6 0-4.4 2.8-6.5 2.8-2.1 8.7-2.1h4.3v-0.6q0-1.9-1.3-2.8-1.4-0.9-4.3-0.9-2.4 0-4.4 0.5-2 0.5-3.8 1.6v-6.2q2.4-0.6 4.7-0.9 2.4-0.4 4.8-0.4 6.2 0 9 2.8 2.7 2.6 2.7 8.7zm24.6-11.3v7.3q-1-0.5-1.9-0.7-1-0.2-2-0.2-2.8 0-4.3 2-1.5 1.9-1.5 5.7v11.6h-7.4v-25.2h7.4v4.1q1.4-2.5 3.2-3.6 1.8-1.2 4.4-1.2 0.4 0 0.8 0.1 0.4 0 1.3 0.1zm2.9 25.7v-25.2h7.4v25.2zm1.1-28.4l5.8-8.5h5.8l-7.6 8.5zm28 17h-3.8q-2.3 0-3.5 0.9-1.1 0.8-1.1 2.5 0 1.5 0.9 2.4 0.9 0.9 2.6 0.9 2.1 0 3.5-1.7 1.4-1.6 1.4-4zm7.4-3.1v14.4h-7.4v-3.7q-1.5 2.3-3.3 3.3-1.9 1.1-4.5 1.1-3.6 0-5.8-2.3-2.2-2.3-2.2-6 0-4.4 2.7-6.5 2.8-2 8.8-2h4.3v-0.7q0-1.9-1.4-2.8-1.4-0.9-4.3-0.9-2.3 0-4.4 0.5-2 0.6-3.7 1.6v-6.1q2.3-0.7 4.7-1 2.4-0.3 4.8-0.3 6.2 0 8.9 2.7 2.8 2.7 2.8 8.7z"/>
	<path id="SansaNews" class="s0" aria-label="SansaNews"  d="m162 90.7v44q-17.1-7.7-33.4-11.6-16.3-3.9-30.8-3.9-19.3 0-28.5 5.3-9.2 5.3-9.2 16.4 0 8.4 6.2 13.1 6.2 4.6 22.5 7.9l22.9 4.6q34.7 7 49.3 21.2 14.7 14.2 14.7 40.4 0 34.4-20.5 51.2-20.4 16.7-62.3 16.7-19.8 0-39.7-3.7-20-3.8-39.9-11.2v-45.2q19.9 10.6 38.5 16 18.6 5.3 35.9 5.3 17.6 0 26.9-5.9 9.4-5.8 9.4-16.7 0-9.7-6.4-15-6.3-5.3-25.3-9.5l-20.7-4.6q-31.3-6.7-45.8-21.3-14.3-14.6-14.3-39.4 0-31 20.1-47.7 20-16.7 57.7-16.7 17.1 0 35.2 2.6 18.1 2.5 37.5 7.7zm154.9 131.1h-26q-15.6 0-23.5 5.3-7.8 5.3-7.8 15.6 0 9.5 6.3 14.9 6.4 5.3 17.7 5.3 14 0 23.6-10 9.7-10.2 9.7-25.4zm50.3-18.8v89h-50.3v-23.1q-10.1 14.2-22.6 20.7-12.6 6.4-30.5 6.4-24.3 0-39.5-14-15-14.2-15-36.8 0-27.4 18.8-40.2 18.9-12.8 59.4-12.8h29.4v-3.9q0-11.9-9.4-17.3-9.3-5.6-29.1-5.6-16 0-29.8 3.2-13.8 3.2-25.7 9.6v-38q16.1-3.9 32.2-5.8 16.2-2.1 32.4-2.1 42.2 0 60.9 16.7 18.8 16.6 18.8 54zm202.7-6v95h-50.2v-15.4-57.3q0-20.2-0.9-27.8-0.9-7.7-3.1-11.3-2.9-4.9-8-7.5-5-2.8-11.4-2.8-15.6 0-24.5 12.1-8.9 12-8.9 33.3v76.7h-49.9v-155.9h49.9v22.8q11.3-13.7 23.9-20.1 12.7-6.5 28.1-6.5 27 0 40.9 16.6 14.1 16.5 14.1 48.1zm168-56.1v37.9q-16-6.7-30.9-10-14.9-3.4-28.2-3.4-14.2 0-21.2 3.7-6.8 3.4-6.8 10.8 0 6 5.2 9.2 5.3 3.2 18.8 4.7l8.8 1.3q38.3 4.9 51.5 16 13.3 11.1 13.3 35 0 24.9-18.4 37.4-18.4 12.5-54.9 12.5-15.5 0-32.1-2.3-16.4-2.5-33.9-7.4v-37.9q15 7.3 30.6 10.9 15.7 3.6 31.9 3.6 14.6 0 22-4 7.4-4.1 7.4-12 0-6.7-5.2-9.9-5-3.3-20.2-5.1l-8.8-1.2q-33.3-4.1-46.6-15.4-13.4-11.3-13.4-34.3 0-24.8 17-36.7 17-12 52.1-12 13.8 0 29 2.1 15.2 2.1 33 6.5zm144 80.9h-26q-15.6 0-23.5 5.3-7.8 5.3-7.8 15.6 0 9.5 6.3 14.9 6.4 5.3 17.7 5.3 14 0 23.6-10 9.7-10.2 9.7-25.4zm50.3-18.8v89h-50.3v-23.1q-10.1 14.2-22.6 20.8-12.6 6.4-30.5 6.4-24.3 0-39.5-14.1-15-14.2-15-36.8 0-27.4 18.8-40.2 18.9-12.8 59.4-12.8h29.4v-3.9q0-11.9-9.4-17.3-9.3-5.6-29.1-5.6-16 0-29.8 3.2-13.8 3.3-25.7 9.7v-38.1q16.1-3.9 32.2-5.8 16.2-2.1 32.4-2.1 42.2 0 60.9 16.7 18.8 16.6 18.8 54zm49 89v-207.9h59.9l75.7 142.6v-142.6h50.9v207.9h-59.9l-75.7-142.6v142.6zm392.6-78.4v14.2h-116.7q1.8 17.6 12.7 26.3 10.9 8.8 30.4 8.8 15.7 0 32.2-4.6 16.6-4.7 34-14.2v38.4q-17.7 6.7-35.4 10.2-17.7 3.4-35.4 3.4-42.4 0-65.9-21.5-23.5-21.6-23.5-60.4 0-38.2 23-60 23.2-21.9 63.6-21.9 36.8 0 58.8 22.1 22.2 22.2 22.2 59.2zm-116.1-16.5h64.8q0-14.2-8.4-22.9-8.2-8.8-21.6-8.8-14.5 0-23.5 8.3-9.1 8-11.3 23.4zm180.4 94.9l-41.1-155.9h48.5l26.2 107.5 26.4-107.5h41.6l26.2 106.3 26.4-106.3h48.5l-41.1 155.9h-54.5l-26.4-107.2-26.2 107.2zm358.8-151.1v37.9q-16-6.7-31-10-14.9-3.4-28.1-3.4-14.2 0-21.2 3.7-6.8 3.4-6.8 10.8 0 6 5.1 9.2 5.3 3.2 18.9 4.8l8.7 1.2q38.4 4.9 51.6 16 13.2 11.2 13.2 35 0 24.9-18.4 37.4-18.4 12.6-54.9 12.6-15.4 0-32-2.4-16.5-2.5-33.9-7.4v-37.9q14.9 7.3 30.5 10.9 15.8 3.6 31.9 3.6 14.7 0 22.1-4 7.4-4.1 7.4-12 0-6.7-5.2-9.9-5-3.3-20.2-5.1l-8.8-1.1q-33.3-4.2-46.7-15.5-13.4-11.3-13.4-34.3 0-24.7 17-36.7 17-12 52.2-12 13.8 0 29 2.1 15.2 2.1 33 6.5z"/>
	<g id="Formas">
		<path id="Forma 3" fill-rule="evenodd" class="s0" d="m1823.08 350.29v26.86h-107.52v-26.86z"/>
		<path id="Forma 2" fill-rule="evenodd" class="s0" d="m713.32 350.29v26.97h-713.32v-26.97z"/>
		<path id="Forma 1" fill-rule="evenodd" class="s0" d="m1824 0v34.53h-1824v-34.53z"/>
	</g>
</svg>